<svg width="21" height="26" viewBox="0 0 21 26" fill="none" xmlns="http://www.w3.org/2000/svg">
<path d="M18.3333 25.9167C18.9963 25.9167 19.6322 25.6533 20.101 25.1845C20.5699 24.7156 20.8333 24.0797 20.8333 23.4167V17.1667L14.5833 22.1667V18.4167H5.83325V15.9167H14.5833V12.1667L20.8333 17.1667V8.41669L13.3333 0.916687H3.33325C2.67021 0.916687 2.03433 1.18008 1.56548 1.64892C1.09664 2.11776 0.833252 2.75365 0.833252 3.41669V23.4167C0.833252 24.0797 1.09664 24.7156 1.56548 25.1845C2.03433 25.6533 2.67021 25.9167 3.33325 25.9167H18.3333ZM12.0833 3.41669L18.3333 9.66669H12.0833V3.41669Z" fill="#575F6B"/>
</svg>
