<svg width="30" height="30" viewBox="0 0 30 30" fill="none" xmlns="http://www.w3.org/2000/svg">
<path d="M16.8087 26.1313C17.0157 26.0298 17.1902 25.8724 17.3123 25.6769C17.4345 25.4814 17.4995 25.2556 17.5 25.025V18.375C17.5 18.0475 17.6313 17.7325 17.8663 17.5L25.5175 9.93252C25.9862 9.46877 26.25 8.83877 26.25 8.18252V4.98752C26.2493 4.82414 26.2165 4.6625 26.1533 4.51184C26.0901 4.36118 25.9978 4.22446 25.8817 4.10952C25.7656 3.99457 25.6279 3.90365 25.4766 3.84197C25.3253 3.78028 25.1634 3.74904 25 3.75002H5C4.30875 3.75002 3.75 4.30252 3.75 4.98752V8.18252C3.75 8.83877 4.01375 9.46877 4.4825 9.93252L12.1337 17.5C12.2497 17.6144 12.3417 17.7506 12.4046 17.9008C12.4675 18.051 12.4999 18.2122 12.5 18.375V26.2625C12.5 27.1813 13.4775 27.7788 14.3087 27.3675L16.8087 26.1313Z" fill="#252733"/>
</svg>
