<svg width="1009" height="590" viewBox="0 0 1009 590" fill="none" xmlns="http://www.w3.org/2000/svg">
<path opacity="0.3" fill-rule="evenodd" clip-rule="evenodd" d="M54.8819 267.055C67.36 214.762 144.982 191.113 203.448 159.242C266.143 125.064 313.134 66.9689 407.453 74.8567C501.747 82.7425 567.964 154.904 651.047 196.674C729.111 235.922 825.436 259.245 879.062 311.96C937.565 369.468 988.085 443.225 953.577 494.06C919.089 544.866 797.678 533.651 715.544 552.846C656.528 566.638 607.741 589.301 540.556 590.582C466.064 592.004 386.334 589.12 313.851 560.51C237.426 530.344 182.253 481.539 138.4 431.845C90.9957 378.128 42.4379 319.206 54.8819 267.055Z" fill="#C5C7CD"/>
</svg>
