<svg width="795" height="539" viewBox="0 0 795 539" fill="none" xmlns="http://www.w3.org/2000/svg">
<g opacity="0.3" filter="url(#filter0_d)">
<path fill-rule="evenodd" clip-rule="evenodd" d="M1040.13 -51.9279C1058.03 3.52042 999.47 69.1346 963.284 131.574C924.48 198.53 913.689 278.788 821.912 324.605C730.16 370.409 628.206 340.885 527.75 349C433.363 356.625 331.036 389.279 251.691 370.67C165.133 350.37 76.814 310.528 80.1361 244.022C83.4563 177.555 202.193 119.561 267.433 55.53C314.311 9.52162 346.722 -38.9396 408.209 -77.965C476.385 -121.235 551.835 -163.469 635.063 -177.8C722.818 -192.911 801.392 -178.792 869.985 -157.477C944.132 -134.436 1022.28 -107.225 1040.13 -51.9279Z" fill="#C5C7CD"/>
</g>
<defs>
<filter id="filter0_d" x="0.537109" y="-284" width="1131.54" height="822.541" filterUnits="userSpaceOnUse" color-interpolation-filters="sRGB">
<feFlood flood-opacity="0" result="BackgroundImageFix"/>
<feColorMatrix in="SourceAlpha" type="matrix" values="0 0 0 0 0 0 0 0 0 0 0 0 0 0 0 0 0 0 127 0" result="hardAlpha"/>
<feOffset dy="4"/>
<feGaussianBlur stdDeviation="2"/>
<feComposite in2="hardAlpha" operator="out"/>
<feColorMatrix type="matrix" values="0 0 0 0 0 0 0 0 0 0 0 0 0 0 0 0 0 0 0.25 0"/>
<feBlend mode="normal" in2="BackgroundImageFix" result="effect1_dropShadow"/>
<feBlend mode="normal" in="SourceGraphic" in2="effect1_dropShadow" result="shape"/>
</filter>
</defs>
</svg>
