<svg width="18" height="18" viewBox="0 0 18 18" fill="none" xmlns="http://www.w3.org/2000/svg">
<path fill-rule="evenodd" clip-rule="evenodd" d="M1.19995 1.8C1.19995 1.32261 1.38959 0.864773 1.72716 0.527208C2.06472 0.189642 2.52256 0 2.99995 0L12.8484 0L16.8 3.9516V16.2C16.8 16.6774 16.6103 17.1352 16.2727 17.4728C15.9352 17.8104 15.4773 18 15 18H2.99995C2.52256 18 2.06472 17.8104 1.72716 17.4728C1.38959 17.1352 1.19995 16.6774 1.19995 16.2V1.8ZM8.42875 12.2784L13.0512 6.9948L12.1488 6.2052L8.37115 10.5228L6.42475 8.5752L5.57515 9.4248L8.42875 12.2784V12.2784Z" fill="#27B585"/>
</svg>
