<svg width="33" height="40" viewBox="0 0 33 40" fill="none" xmlns="http://www.w3.org/2000/svg">
<path d="M31.5321 5.96866L26.7393 1.17578V5.95973L31.5321 5.96866Z" fill="#252733"/>
<path d="M32.2146 8.26477H25.5843C24.9482 8.26358 24.4328 7.74763 24.4328 7.11118V0.5H5.17146C4.53412 0.5 4.01758 1.01654 4.01758 1.65359V22.292C5.21877 21.79 6.53571 21.5124 7.91663 21.5124C8.44358 21.5124 8.96101 21.5529 9.46655 21.6308C9.42876 21.5169 9.40763 21.3955 9.40763 21.269C9.40763 20.632 9.92417 20.1154 10.5615 20.1154H24.456C25.0931 20.1154 25.6096 20.632 25.6096 21.269C25.6096 21.9061 25.0931 22.4226 24.456 22.4226H12.1153C15.6213 24.0228 18.0641 27.5612 18.0641 31.6599C18.0641 33.245 17.6985 34.7464 17.0474 36.0842H31.061C31.698 36.0842 32.2146 35.5676 32.2146 34.9306V8.26477ZM20.3029 12.1936C20.3029 12.8309 19.7863 13.3472 19.1493 13.3472H10.5615C9.92417 13.3472 9.40763 12.8309 9.40763 12.1936C9.40763 11.5565 9.92417 11.04 10.5615 11.04H19.1493C19.7863 11.04 20.3029 11.5565 20.3029 12.1936ZM24.456 17.885H10.5615C9.92417 17.885 9.40763 17.3685 9.40763 16.7314C9.40763 16.0941 9.92417 15.5776 10.5615 15.5776H24.456C25.0931 15.5776 25.6096 16.0941 25.6096 16.7314C25.6096 17.3685 25.0931 17.885 24.456 17.885Z" fill="#252733"/>
<path d="M15.7563 31.6599C15.7563 27.3368 12.2393 23.8198 7.91622 23.8198C3.59317 23.8198 0.0761719 27.3368 0.0761719 31.6599C0.0761719 35.9829 3.59317 39.4999 7.91622 39.4999C12.2393 39.4999 15.7563 35.9829 15.7563 31.6599ZM11.2148 35.0314C10.9896 35.2566 10.6944 35.3694 10.3992 35.3694C10.1041 35.3694 9.80862 35.2566 9.58337 35.0314L7.91622 33.3642L6.24907 35.0314C6.02383 35.2566 5.72866 35.3694 5.43349 35.3694C5.13803 35.3694 4.84286 35.2569 4.61762 35.0314C4.16714 34.5809 4.16714 33.8504 4.61762 33.3999L6.28477 31.7328L4.61762 30.0656C4.16714 29.6151 4.16714 28.8847 4.61762 28.4342C5.06811 27.9837 5.79858 27.9837 6.24907 28.4342L7.91652 30.1013L9.58367 28.4342C10.0342 27.9837 10.7646 27.9834 11.2151 28.4342C11.6656 28.8847 11.6656 29.6151 11.2151 30.0656L9.54797 31.7328L11.2151 33.3999C11.6653 33.8504 11.6653 34.5809 11.2148 35.0314Z" fill="#252733"/>
</svg>
