<svg width="95" height="96" viewBox="0 0 95 96" fill="none" xmlns="http://www.w3.org/2000/svg">
<g filter="url(#filter0_dd)">
<circle cx="43.9423" cy="44.7115" r="26.9423" fill="url(#paint0_linear)"/>
</g>
<path d="M43.2959 48.0952C43.7619 48.0952 44.1396 47.7034 44.1396 47.2202C44.1396 46.7369 43.7619 46.3452 43.2959 46.3452C42.8299 46.3452 42.4521 46.7369 42.4521 47.2202C42.4521 47.7034 42.8299 48.0952 43.2959 48.0952Z" fill="url(#paint1_linear)"/>
<path d="M54.0115 38.7326L48.1053 32.6076C48.031 32.5222 47.9397 32.4545 47.8377 32.4092C47.7358 32.3638 47.6255 32.342 47.5146 32.3451H39.0771C38.63 32.3465 38.2016 32.5314 37.8854 32.8592C37.5692 33.1871 37.391 33.6314 37.3896 34.0951V42.8451H35.7021C35.2547 42.8456 34.8258 43.0301 34.5094 43.3582C34.193 43.6863 34.0151 44.1312 34.0146 44.5951V49.8451C34.0151 50.3091 34.193 50.754 34.5094 51.0821C34.8258 51.4102 35.2547 51.5947 35.7021 51.5951H37.3896V55.0951C37.391 55.5588 37.5692 56.0032 37.8854 56.3311C38.2016 56.6589 38.63 56.8438 39.0771 56.8451H52.5771C53.0243 56.8438 53.4527 56.6589 53.7689 56.3311C54.0851 56.0032 54.2633 55.5588 54.2646 55.0951V39.3451C54.2676 39.2302 54.2465 39.1159 54.2028 39.0101C54.1591 38.9044 54.0939 38.8097 54.0115 38.7326ZM47.5146 34.4451L52.2396 39.3451H47.5146V34.4451ZM35.7021 44.5951H43.7996L46.6709 47.2201L43.8081 49.8451H35.7021V44.5951ZM52.5771 55.0951H39.0771V51.5951H43.8097C44.217 51.5941 44.6103 51.441 44.9176 51.1638L47.7728 48.5466C47.9559 48.3828 48.103 48.1802 48.204 47.9523C48.3051 47.7245 48.3578 47.4768 48.3586 47.2261C48.3594 46.9753 48.3083 46.7273 48.2087 46.4988C48.1091 46.2703 47.9633 46.0666 47.7813 45.9015L44.9091 43.2686C44.6037 42.9956 44.2139 42.8454 43.8106 42.8451H39.0771V34.0951H45.8271V39.3451C45.8285 39.8088 46.0067 40.2532 46.3229 40.5811C46.6391 40.9089 47.0675 41.0938 47.5146 41.0951H52.5771V55.0951Z" fill="url(#paint2_linear)"/>
<defs>
<filter id="filter0_dd" x="0" y="0.769226" width="94.8846" height="94.8846" filterUnits="userSpaceOnUse" color-interpolation-filters="sRGB">
<feFlood flood-opacity="0" result="BackgroundImageFix"/>
<feColorMatrix in="SourceAlpha" type="matrix" values="0 0 0 0 0 0 0 0 0 0 0 0 0 0 0 0 0 0 127 0" result="hardAlpha"/>
<feOffset dx="4" dy="4"/>
<feGaussianBlur stdDeviation="10"/>
<feColorMatrix type="matrix" values="0 0 0 0 0 0 0 0 0 0 0 0 0 0 0 0 0 0 0.25 0"/>
<feBlend mode="normal" in2="BackgroundImageFix" result="effect1_dropShadow"/>
<feColorMatrix in="SourceAlpha" type="matrix" values="0 0 0 0 0 0 0 0 0 0 0 0 0 0 0 0 0 0 127 0" result="hardAlpha"/>
<feMorphology radius="2" operator="dilate" in="SourceAlpha" result="effect2_dropShadow"/>
<feOffset dx="-5" dy="-5"/>
<feGaussianBlur stdDeviation="5"/>
<feColorMatrix type="matrix" values="0 0 0 0 1 0 0 0 0 1 0 0 0 0 1 0 0 0 1 0"/>
<feBlend mode="normal" in2="effect1_dropShadow" result="effect2_dropShadow"/>
<feBlend mode="normal" in="SourceGraphic" in2="effect2_dropShadow" result="shape"/>
</filter>
<linearGradient id="paint0_linear" x1="25.4195" y1="24.5048" x2="61.4548" y2="64.5815" gradientUnits="userSpaceOnUse">
<stop stop-color="#D6D6D6" stop-opacity="0.45"/>
<stop offset="1" stop-color="white"/>
</linearGradient>
<linearGradient id="paint1_linear" x1="42.4521" y1="46.3452" x2="44.1451" y2="46.3504" gradientUnits="userSpaceOnUse">
<stop stop-color="#27B585"/>
<stop offset="1" stop-color="#243D7F"/>
</linearGradient>
<linearGradient id="paint2_linear" x1="44.1398" y1="32.3448" x2="44.1398" y2="56.8451" gradientUnits="userSpaceOnUse">
<stop stop-color="#27B585"/>
<stop offset="1" stop-color="#243D7F"/>
</linearGradient>
</defs>
</svg>
