<svg width="95" height="96" viewBox="0 0 95 96" fill="none" xmlns="http://www.w3.org/2000/svg">
<g filter="url(#filter0_d)">
<g filter="url(#filter1_dd)">
<circle cx="43.9423" cy="44.4808" r="26.9423" fill="url(#paint0_linear)"/>
</g>
<path d="M36.8285 37.5778C36.7145 37.4815 36.6241 37.3671 36.5625 37.2413C36.5008 37.1155 36.4691 36.9806 36.4691 36.8444C36.4692 36.7082 36.501 36.5734 36.5627 36.4476C36.6244 36.3217 36.7148 36.2074 36.8288 36.1112L43.272 30.668C43.5021 30.4736 43.8142 30.3644 44.1396 30.3644C44.4651 30.3644 44.7772 30.4736 45.0073 30.668L51.4505 36.1112C51.5666 36.207 51.659 36.3214 51.7224 36.4477C51.7858 36.574 51.8189 36.7096 51.8198 36.8468C51.8207 36.9839 51.7894 37.1199 51.7277 37.2468C51.6661 37.3736 51.5752 37.4889 51.4604 37.5859C51.3457 37.6829 51.2093 37.7597 51.0591 37.8118C50.909 37.864 50.7481 37.8904 50.5858 37.8897C50.4235 37.8889 50.2629 37.861 50.1135 37.8074C49.964 37.7539 49.8286 37.6758 49.7151 37.5778L45.3669 33.9046V45.92C45.3669 46.195 45.2376 46.4588 45.0075 46.6532C44.7773 46.8477 44.4651 46.957 44.1396 46.957C43.8142 46.957 43.502 46.8477 43.2718 46.6532C43.0417 46.4588 42.9124 46.195 42.9124 45.92V33.9046L38.5641 37.5778C38.4502 37.6741 38.3149 37.7505 38.166 37.8026C38.0171 37.8548 37.8575 37.8816 37.6963 37.8816C37.5351 37.8816 37.3755 37.8548 37.2266 37.8026C37.0777 37.7505 36.9424 37.6741 36.8285 37.5778ZM55.1851 40.7348H51.5033C51.1778 40.7348 50.8656 40.844 50.6355 41.0385C50.4053 41.233 50.276 41.4968 50.276 41.7718C50.276 42.0468 50.4053 42.3106 50.6355 42.5051C50.8656 42.6996 51.1778 42.8088 51.5033 42.8088H55.1851V56.2903H33.0942V42.8088H36.776C37.1015 42.8088 37.4137 42.6996 37.6438 42.5051C37.874 42.3106 38.0033 42.0468 38.0033 41.7718C38.0033 41.4968 37.874 41.233 37.6438 41.0385C37.4137 40.844 37.1015 40.7348 36.776 40.7348H33.0942C32.4434 40.7354 31.8195 40.9541 31.3594 41.3429C30.8992 41.7318 30.6404 42.259 30.6396 42.8088V56.2903C30.6404 56.8402 30.8992 57.3674 31.3594 57.7562C31.8195 58.145 32.4434 58.3638 33.0942 58.3644H55.1851C55.8359 58.3638 56.4598 58.145 56.9199 57.7562C57.3801 57.3674 57.6389 56.8402 57.6396 56.2903V42.8088C57.6389 42.259 57.3801 41.7318 56.9199 41.3429C56.4598 40.9541 55.8359 40.7354 55.1851 40.7348Z" fill="url(#paint1_linear)"/>
</g>
<defs>
<filter id="filter0_d" x="13" y="17.5385" width="61.8846" height="61.8846" filterUnits="userSpaceOnUse" color-interpolation-filters="sRGB">
<feFlood flood-opacity="0" result="BackgroundImageFix"/>
<feColorMatrix in="SourceAlpha" type="matrix" values="0 0 0 0 0 0 0 0 0 0 0 0 0 0 0 0 0 0 127 0" result="hardAlpha"/>
<feOffset dy="4"/>
<feGaussianBlur stdDeviation="2"/>
<feComposite in2="hardAlpha" operator="out"/>
<feColorMatrix type="matrix" values="0 0 0 0 0 0 0 0 0 0 0 0 0 0 0 0 0 0 0.25 0"/>
<feBlend mode="normal" in2="BackgroundImageFix" result="effect1_dropShadow"/>
<feBlend mode="normal" in="SourceGraphic" in2="effect1_dropShadow" result="shape"/>
</filter>
<filter id="filter1_dd" x="0" y="0.538452" width="94.8846" height="94.8846" filterUnits="userSpaceOnUse" color-interpolation-filters="sRGB">
<feFlood flood-opacity="0" result="BackgroundImageFix"/>
<feColorMatrix in="SourceAlpha" type="matrix" values="0 0 0 0 0 0 0 0 0 0 0 0 0 0 0 0 0 0 127 0" result="hardAlpha"/>
<feOffset dx="4" dy="4"/>
<feGaussianBlur stdDeviation="10"/>
<feColorMatrix type="matrix" values="0 0 0 0 0 0 0 0 0 0 0 0 0 0 0 0 0 0 0.25 0"/>
<feBlend mode="normal" in2="BackgroundImageFix" result="effect1_dropShadow"/>
<feColorMatrix in="SourceAlpha" type="matrix" values="0 0 0 0 0 0 0 0 0 0 0 0 0 0 0 0 0 0 127 0" result="hardAlpha"/>
<feMorphology radius="2" operator="dilate" in="SourceAlpha" result="effect2_dropShadow"/>
<feOffset dx="-5" dy="-5"/>
<feGaussianBlur stdDeviation="5"/>
<feColorMatrix type="matrix" values="0 0 0 0 1 0 0 0 0 1 0 0 0 0 1 0 0 0 1 0"/>
<feBlend mode="normal" in2="effect1_dropShadow" result="effect2_dropShadow"/>
<feBlend mode="normal" in="SourceGraphic" in2="effect2_dropShadow" result="shape"/>
</filter>
<linearGradient id="paint0_linear" x1="25.4195" y1="24.274" x2="61.4548" y2="64.3507" gradientUnits="userSpaceOnUse">
<stop stop-color="#D6D6D6" stop-opacity="0.45"/>
<stop offset="1" stop-color="white"/>
</linearGradient>
<linearGradient id="paint1_linear" x1="30.6396" y1="30.3644" x2="57.7269" y2="30.4491" gradientUnits="userSpaceOnUse">
<stop stop-color="#27B585"/>
<stop offset="1" stop-color="#243D7F"/>
</linearGradient>
</defs>
</svg>
