<svg width="52" height="52" viewBox="0 0 52 52" fill="none" xmlns="http://www.w3.org/2000/svg">
<path d="M32.5 2.16669H19.5V6.50002H32.5V2.16669ZM23.8333 30.3334H28.1667V17.3334H23.8333V30.3334ZM41.2317 16.0117L44.3083 12.935C43.3767 11.83 42.3583 10.79 41.2533 9.88002L38.1767 12.9567C34.7259 10.1797 30.4294 8.66602 26 8.66669C15.2317 8.66669 6.5 17.3984 6.5 28.1667C6.5 38.935 15.21 47.6667 26 47.6667C29.671 47.6687 33.2679 46.6337 36.3764 44.6809C39.485 42.7282 41.9787 39.9371 43.5704 36.6291C45.1622 33.3211 45.7871 29.6308 45.3734 25.9832C44.9596 22.3356 43.5239 18.8791 41.2317 16.0117ZM26 43.3334C17.615 43.3334 10.8333 36.5517 10.8333 28.1667C10.8333 19.7817 17.615 13 26 13C34.385 13 41.1667 19.7817 41.1667 28.1667C41.1667 36.5517 34.385 43.3334 26 43.3334Z" fill="url(#paint0_linear)"/>
<defs>
<linearGradient id="paint0_linear" x1="25.9988" y1="2.16669" x2="25.9988" y2="47.6667" gradientUnits="userSpaceOnUse">
<stop stop-color="#27B585"/>
<stop offset="1" stop-color="#243D7F"/>
</linearGradient>
</defs>
</svg>
