<svg width="95" height="95" viewBox="0 0 95 95" fill="none" xmlns="http://www.w3.org/2000/svg">
<g filter="url(#filter0_dd)">
<circle cx="43.9423" cy="43.9423" r="26.9423" fill="url(#paint0_linear)"/>
</g>
<g clip-path="url(#clip0)">
<path d="M44.1396 31.226L37.2916 38.3573H41.8014V44.1547H46.4778V38.3573H50.9876L44.1396 31.226ZM38.2361 40.2725C38.099 40.2724 37.9636 40.3033 37.8392 40.363C37.7148 40.4227 37.6044 40.5097 37.5157 40.618L30.8643 48.7425C30.7475 48.8851 30.6726 49.0594 30.6483 49.2447C30.624 49.4301 30.6514 49.6188 30.7272 49.7885C30.803 49.9583 30.9241 50.102 31.0761 50.2026C31.2281 50.3033 31.4048 50.3568 31.5852 50.3567L56.6952 50.3388C56.8755 50.3387 57.052 50.2851 57.204 50.1843C57.3559 50.0835 57.4768 49.9398 57.5525 49.77C57.6282 49.6003 57.6555 49.4116 57.6311 49.2263C57.6067 49.041 57.5317 48.8668 57.415 48.7243L50.7789 40.618C50.6902 40.5097 50.5798 40.4227 50.4554 40.363C50.331 40.3033 50.1956 40.2724 50.0586 40.2725H48.0978C48.0973 40.9257 48.0957 41.579 48.0957 42.2325H49.6209L54.6537 48.3804L33.628 48.395L38.6732 42.2322H40.1814C40.182 41.579 40.1822 40.9257 40.1814 40.2722L38.2361 40.2725ZM54.9153 51.7399L52.4373 51.7418L54.6542 54.4494L33.628 54.4643L35.8474 51.7533L33.3666 51.7556L30.8643 54.8115C30.7474 54.9541 30.6724 55.1284 30.6481 55.3138C30.6238 55.4992 30.6511 55.688 30.7269 55.8577C30.8028 56.0275 30.9239 56.1713 31.0759 56.272C31.228 56.3727 31.4047 56.4261 31.5852 56.426L56.6952 56.408C56.8755 56.408 57.052 56.3544 57.204 56.2536C57.3559 56.1528 57.4768 56.0091 57.5525 55.8393C57.6282 55.6696 57.6555 55.4809 57.6311 55.2956C57.6067 55.1103 57.5317 54.9361 57.415 54.7936L54.9153 51.7399Z" fill="url(#paint1_linear)"/>
</g>
<defs>
<filter id="filter0_dd" x="0" y="0" width="94.8846" height="94.8846" filterUnits="userSpaceOnUse" color-interpolation-filters="sRGB">
<feFlood flood-opacity="0" result="BackgroundImageFix"/>
<feColorMatrix in="SourceAlpha" type="matrix" values="0 0 0 0 0 0 0 0 0 0 0 0 0 0 0 0 0 0 127 0" result="hardAlpha"/>
<feOffset dx="4" dy="4"/>
<feGaussianBlur stdDeviation="10"/>
<feColorMatrix type="matrix" values="0 0 0 0 0 0 0 0 0 0 0 0 0 0 0 0 0 0 0.25 0"/>
<feBlend mode="normal" in2="BackgroundImageFix" result="effect1_dropShadow"/>
<feColorMatrix in="SourceAlpha" type="matrix" values="0 0 0 0 0 0 0 0 0 0 0 0 0 0 0 0 0 0 127 0" result="hardAlpha"/>
<feMorphology radius="2" operator="dilate" in="SourceAlpha" result="effect2_dropShadow"/>
<feOffset dx="-5" dy="-5"/>
<feGaussianBlur stdDeviation="5"/>
<feColorMatrix type="matrix" values="0 0 0 0 1 0 0 0 0 1 0 0 0 0 1 0 0 0 1 0"/>
<feBlend mode="normal" in2="effect1_dropShadow" result="effect2_dropShadow"/>
<feBlend mode="normal" in="SourceGraphic" in2="effect2_dropShadow" result="shape"/>
</filter>
<linearGradient id="paint0_linear" x1="25.4195" y1="23.7356" x2="61.4548" y2="63.8123" gradientUnits="userSpaceOnUse">
<stop stop-color="#D6D6D6" stop-opacity="0.45"/>
<stop offset="1" stop-color="white"/>
</linearGradient>
<linearGradient id="paint1_linear" x1="30.6395" y1="31.226" x2="57.727" y2="31.3201" gradientUnits="userSpaceOnUse">
<stop stop-color="#27B585"/>
<stop offset="1" stop-color="#243D7F"/>
</linearGradient>
<clipPath id="clip0">
<rect width="27" height="28" fill="white" transform="translate(30.6396 29.8259)"/>
</clipPath>
</defs>
</svg>
